<svg width="22" height="22" viewBox="0 0 22 22" fill="none" xmlns="http://www.w3.org/2000/svg">
<g clip-path="url(#clip0_11678_8404)">
<path d="M5.5 17.0351C6.93825 15.6372 8.88433 14.7773 11.0211 14.7773C13.1368 14.7773 15.0618 15.6198 16.5 16.992C15.0618 18.3899 13.1157 19.2498 10.9789 19.2498C8.86325 19.2498 6.93825 18.4073 5.5 17.0351Z" stroke="#292929" stroke-linecap="round" stroke-linejoin="round"/>
<path d="M3.64375 14.6896C3.08458 13.5768 2.75 12.331 2.75 11C2.75 6.4405 6.4405 2.75 11 2.75C15.5595 2.75 19.25 6.4405 19.25 11C19.25 12.3292 18.9173 13.5758 18.3544 14.6878" stroke="#292929" stroke-linecap="round" stroke-linejoin="round"/>
<path d="M12.9445 7.22196C14.0185 8.2959 14.0185 10.0371 12.9445 11.111C11.8706 12.185 10.1294 12.185 9.05545 11.111C7.98152 10.0371 7.98152 8.2959 9.05545 7.22196C10.1294 6.14802 11.8706 6.14802 12.9445 7.22196Z" stroke="#292929" stroke-linecap="round" stroke-linejoin="round"/>
</g>
<defs>
<clipPath id="clip0_11678_8404">
<rect width="22" height="22" fill="white"/>
</clipPath>
</defs>
</svg>
