<svg width="22" height="22" viewBox="0 0 22 22" fill="none" xmlns="http://www.w3.org/2000/svg">
<g clip-path="url(#clip0_11678_8411)">
<path d="M4.69975 9.20792V9.05025C4.69975 5.57058 7.52034 2.75 11 2.75C14.4797 2.75 17.3003 5.57058 17.3003 9.05025V9.20792C17.3003 12.3805 13.2834 17.1563 11.6646 18.953C11.308 19.349 10.692 19.349 10.3354 18.953C8.71659 17.1563 4.69975 12.3805 4.69975 9.20792V9.20792Z" stroke="#292929" stroke-linecap="round" stroke-linejoin="round"/>
<path d="M9.16663 9.12506C9.16663 10.138 9.98704 10.9584 11 10.9584C12.0129 10.9584 12.8333 10.138 12.8333 9.12506V9.09115C12.8333 8.07823 12.0129 7.25781 11 7.25781C9.98704 7.25781 9.16663 8.07823 9.16663 9.09115" stroke="#292929" stroke-linecap="round" stroke-linejoin="round"/>
</g>
<defs>
<clipPath id="clip0_11678_8411">
<rect width="22" height="22" fill="white"/>
</clipPath>
</defs>
</svg>
