<svg width="18" height="18" viewBox="0 0 18 18" fill="none" xmlns="http://www.w3.org/2000/svg">
<path d="M8.14211 9.858C7.26461 8.9805 6.60311 7.998 6.16361 7.00125C6.07061 6.7905 6.12536 6.54375 6.28811 6.381L6.90236 5.7675C7.40561 5.26425 7.40561 4.5525 6.96611 4.113L6.08561 3.2325C5.49986 2.64675 4.55036 2.64675 3.96461 3.2325L3.47561 3.7215C2.91986 4.27725 2.68811 5.079 2.83811 5.874C3.20861 7.83375 4.34711 9.9795 6.18386 11.8163C8.02061 13.653 10.1664 14.7915 12.1261 15.162C12.9211 15.312 13.7229 15.0803 14.2786 14.5245L14.7669 14.0363C15.3526 13.4505 15.3526 12.501 14.7669 11.9153L13.8871 11.0355C13.4476 10.596 12.7351 10.596 12.2964 11.0355L11.6191 11.7135C11.4564 11.8763 11.2096 11.931 10.9989 11.838C10.0021 11.3978 9.01961 10.7355 8.14211 9.858V9.858Z" stroke="#FD9339" stroke-linecap="round" stroke-linejoin="round"/>
</svg>
