<svg width="256" height="36" viewBox="0 0 256 36" fill="none" xmlns="http://www.w3.org/2000/svg">
<path d="M106 3C102.022 3 98.2064 4.58035 95.3934 7.3934C92.5804 10.2064 91 14.0218 91 18C91 21.9782 92.5804 25.7936 95.3934 28.6066C98.2064 31.4196 102.022 33 106 33C109.978 33 113.794 31.4196 116.607 28.6066C119.42 25.7936 121 21.9782 121 18C121 14.0218 119.42 10.2064 116.607 7.3934C113.794 4.58035 109.978 3 106 3Z" fill="#1976D2"/>
<path d="M114.953 13.5308C114.987 13.4175 115.004 13.3125 114.999 13.2188C114.988 12.9473 114.801 12.75 114.362 12.75H112.398C111.902 12.75 111.674 13.05 111.54 13.3508C111.54 13.3508 110.316 15.87 108.906 17.5312C108.448 18.012 108.216 18 107.968 18C107.835 18 107.5 17.8395 107.5 17.3992V13.5105C107.5 12.99 107.37 12.75 106.951 12.75H103.464C103.159 12.75 103 12.99 103 13.2308C103 13.731 103.674 13.851 103.75 15.2527V17.97C103.75 18.63 103.635 18.75 103.388 18.75C102.72 18.75 101.406 16.5 100.526 13.551C100.336 12.9705 100.145 12.75 99.6497 12.75H97.6675C97.0953 12.75 97 13.0305 97 13.3305C97 13.8713 97.45 16.7948 99.9062 20.1562C101.688 22.5938 104.034 24 106.112 24C107.37 24 107.499 23.6798 107.499 23.1795V20.9505C107.5 20.3498 107.637 20.25 108.038 20.25C108.323 20.25 108.906 20.4375 110.031 21.75C111.329 23.2635 111.564 24 112.308 24H114.272C114.728 24 114.99 23.8088 115 23.4375C115.002 23.343 114.989 23.2373 114.958 23.1195C114.812 22.6875 114.145 21.6315 113.312 20.625C112.851 20.0677 112.396 19.5158 112.187 19.2158C112.047 19.02 111.993 18.882 112 18.75C112.007 18.6112 112.079 18.4792 112.187 18.2947C112.167 18.2947 114.705 14.7315 114.953 13.5308Z" fill="white"/>
<path d="M150 3C146.022 3 142.206 4.58035 139.393 7.3934C136.58 10.2064 135 14.0218 135 18C135 21.9782 136.58 25.7936 139.393 28.6066C142.206 31.4196 146.022 33 150 33C153.978 33 157.794 31.4196 160.607 28.6066C163.42 25.7936 165 21.9782 165 18C165 14.0218 163.42 10.2064 160.607 7.3934C157.794 4.58035 153.978 3 150 3Z" fill="#03A9F4"/>
<path d="M159 12.84C158.338 13.1333 157.501 13.4085 156.75 13.5C157.514 13.047 158.725 12.1035 159 11.25C158.287 11.6693 156.997 12.117 156.155 12.279C155.483 11.5665 154.525 11.25 153.463 11.25C151.423 11.25 150 12.9787 150 15V16.5C147 16.5 144.075 14.2148 142.255 12C141.935 12.5408 141.754 13.1738 141.754 13.8428C141.754 15.207 143.008 16.5915 144 17.25C143.395 17.2312 142.249 16.7692 141.75 16.5C141.75 16.512 141.75 16.527 141.75 16.5427C141.75 18.318 142.996 19.5232 144.684 19.8593C144.376 19.944 144 20.25 142.554 20.25C143.023 21.7013 145.384 22.4685 147 22.5C145.735 23.4803 143.481 24 141.75 24C141.451 24 141.289 24.0165 141 23.9827C142.633 25.0177 144.915 25.5 147 25.5C153.793 25.5 157.5 20.3115 157.5 15.4725C157.5 15.3135 157.495 14.781 157.486 14.625C158.212 14.1135 158.507 13.578 159 12.84Z" fill="white"/>
<path d="M18 3C14.0218 3 10.2064 4.58035 7.3934 7.3934C4.58035 10.2064 3 14.0218 3 18C3 21.9782 4.58035 25.7936 7.3934 28.6066C10.2064 31.4196 14.0218 33 18 33C21.9782 33 25.7936 31.4196 28.6066 28.6066C31.4196 25.7936 33 21.9782 33 18C33 14.0218 31.4196 10.2064 28.6066 7.3934C25.7936 4.58035 21.9782 3 18 3Z" fill="#039BE5"/>
<path d="M19.928 22.777H23.6158L24.1948 19.0308H19.9273V16.9833C19.9273 15.427 20.4358 14.047 21.8915 14.047H24.2308V10.7778C23.8198 10.7223 22.9505 10.6008 21.308 10.6008C17.8783 10.6008 15.8675 12.412 15.8675 16.5385V19.0308H12.3418V22.777H15.8675V33.0738C16.5658 33.1788 17.273 33.25 17.999 33.25C18.6553 33.25 19.2958 33.19 19.928 33.1045V22.777Z" fill="white"/>
<path d="M75.7277 15.2581H74.6V15.2H62V20.8H69.9121C68.7578 24.0599 65.6561 26.4 62 26.4C57.3611 26.4 53.6 22.6389 53.6 18C53.6 13.3611 57.3611 9.6 62 9.6C64.1413 9.6 66.0894 10.4078 67.5727 11.7273L71.5326 7.7674C69.0322 5.4371 65.6876 4 62 4C54.2685 4 48 10.2685 48 18C48 25.7315 54.2685 32 62 32C69.7315 32 76 25.7315 76 18C76 17.0613 75.9034 16.145 75.7277 15.2581Z" fill="#FFC107"/>
<path d="M49.6133 11.4837L54.213 14.857C55.4576 11.7756 58.4718 9.6 61.9991 9.6C64.1404 9.6 66.0885 10.4078 67.5718 11.7273L71.5317 7.7674C69.0313 5.4371 65.6867 4 61.9991 4C56.6217 4 51.9583 7.0359 49.6133 11.4837Z" fill="#FF3D00"/>
<path d="M62.0026 32C65.6188 32 68.9046 30.6161 71.3889 28.3656L67.0559 24.699C65.6503 25.7637 63.9031 26.4 62.0026 26.4C58.3612 26.4 55.2693 24.0781 54.1045 20.8378L49.5391 24.3553C51.8561 28.8892 56.5615 32 62.0026 32Z" fill="#4CAF50"/>
<path d="M75.7277 15.2579H74.6V15.1998H62V20.7998H69.9121C69.3577 22.3657 68.3504 23.716 67.0512 24.6995C67.0519 24.6988 67.0526 24.6988 67.0533 24.6981L71.3863 28.3647C71.0797 28.6433 76 24.9998 76 17.9998C76 17.0611 75.9034 16.1448 75.7277 15.2579Z" fill="#1976D2"/>
<path d="M194 3C190.022 3 186.206 4.58035 183.393 7.3934C180.58 10.2064 179 14.0218 179 18C179 21.9782 180.58 25.7936 183.393 28.6066C186.206 31.4196 190.022 33 194 33C197.978 33 201.794 31.4196 204.607 28.6066C207.42 25.7936 209 21.9782 209 18C209 14.0218 207.42 10.2064 204.607 7.3934C201.794 4.58035 197.978 3 194 3Z" fill="#005FF9"/>
<path d="M196.707 18C196.707 19.4927 195.493 20.7071 194 20.7071C192.507 20.7071 191.293 19.4927 191.293 18C191.293 16.5073 192.507 15.2929 194 15.2929C195.493 15.2929 196.707 16.5073 196.707 18ZM194 9C189.037 9 185 13.0371 185 18C185 22.9629 189.037 27 194 27C195.818 27 197.571 26.4587 199.07 25.4346L199.095 25.4166L197.883 24.0075L197.862 24.0204C196.709 24.7629 195.373 25.155 194 25.155C190.055 25.155 186.845 21.9452 186.845 18C186.845 14.0548 190.055 10.845 194 10.845C197.945 10.845 201.155 14.0548 201.155 18C201.155 18.5111 201.098 19.0286 200.987 19.5377C200.76 20.4666 200.11 20.7508 199.622 20.7135C199.131 20.6736 198.556 20.3239 198.552 19.4676V18.8151V18C198.552 15.4896 196.51 13.4479 194 13.4479C191.49 13.4479 189.448 15.4896 189.448 18C189.448 20.5104 191.49 22.5521 194 22.5521C195.219 22.5521 196.363 22.0757 197.225 21.2085C197.727 21.9889 198.544 22.4781 199.474 22.5527C199.554 22.5591 199.635 22.5624 199.716 22.5624C200.371 22.5624 201.019 22.3431 201.543 21.9465C202.082 21.5364 202.485 20.9443 202.707 20.2326C202.743 20.1176 202.808 19.8546 202.808 19.8527L202.81 19.8431C202.941 19.2722 203 18.7033 203 18C203 13.0371 198.963 9 194 9Z" fill="#FF9E00"/>
<path d="M238 3C234.022 3 230.206 4.58035 227.393 7.3934C224.58 10.2064 223 14.0218 223 18C223 21.9782 224.58 25.7936 227.393 28.6066C230.206 31.4196 234.022 33 238 33C241.978 33 245.794 31.4196 248.607 28.6066C251.42 25.7936 253 21.9782 253 18C253 14.0218 251.42 10.2064 248.607 7.3934C245.794 4.58035 241.978 3 238 3Z" fill="#FC3F1D"/>
<path d="M242 25.0413H239.372V12.0331H238.198C236.05 12.0331 234.926 13.1074 234.926 14.7107C234.926 16.5289 235.702 17.3719 237.306 18.4463L238.628 19.3388L234.826 25.0413H232L235.421 19.9504C233.455 18.5455 232.347 17.1736 232.347 14.8595C232.347 11.9669 234.364 10 238.182 10H241.983L242 25.0413Z" fill="white"/>
</svg>
